<mxfile host="app.diagrams.net" modified="2024-05-26T19:44:46.913Z" agent="Mozilla/5.0 (Windows NT 10.0; Win64; x64) AppleWebKit/537.36 (KHTML, like Gecko) Chrome/125.0.0.0 Safari/537.36" etag="xUZkNLYlifj-SKslay1R" version="24.4.8" type="github">
  <diagram name="Page-1" id="pJp4zo_Ey-GJ9IVS6SAg">
    <mxGraphModel dx="794" dy="420" grid="1" gridSize="10" guides="1" tooltips="1" connect="1" arrows="1" fold="1" page="1" pageScale="1" pageWidth="850" pageHeight="1100" math="0" shadow="0">
      <root>
        <mxCell id="0" />
        <mxCell id="1" parent="0" />
        <mxCell id="oqOKgRQTfTrVc_61Tcot-1" value="" style="rounded=0;whiteSpace=wrap;html=1;" vertex="1" parent="1">
          <mxGeometry x="93" y="72" width="650" height="678" as="geometry" />
        </mxCell>
        <mxCell id="oqOKgRQTfTrVc_61Tcot-2" value="" style="rounded=0;whiteSpace=wrap;html=1;" vertex="1" parent="1">
          <mxGeometry x="93" y="72" width="650" height="40" as="geometry" />
        </mxCell>
        <mxCell id="oqOKgRQTfTrVc_61Tcot-4" value="Contact us" style="rounded=1;whiteSpace=wrap;html=1;fillColor=#dae8fc;strokeColor=#6c8ebf;" vertex="1" parent="1">
          <mxGeometry x="663" y="72" width="80" height="40" as="geometry" />
        </mxCell>
        <mxCell id="oqOKgRQTfTrVc_61Tcot-5" value="Company&#39;s name with logo" style="rounded=1;whiteSpace=wrap;html=1;fillColor=#d5e8d4;strokeColor=#82b366;" vertex="1" parent="1">
          <mxGeometry x="94" y="72" width="150" height="40" as="geometry" />
        </mxCell>
        <mxCell id="oqOKgRQTfTrVc_61Tcot-6" value="About us" style="rounded=1;whiteSpace=wrap;html=1;fillColor=#e1d5e7;strokeColor=#9673a6;" vertex="1" parent="1">
          <mxGeometry x="284" y="72" width="80" height="40" as="geometry" />
        </mxCell>
        <mxCell id="oqOKgRQTfTrVc_61Tcot-7" value="Services" style="rounded=1;whiteSpace=wrap;html=1;fillColor=#e1d5e7;strokeColor=#9673a6;" vertex="1" parent="1">
          <mxGeometry x="364" y="72" width="80" height="40" as="geometry" />
        </mxCell>
        <mxCell id="oqOKgRQTfTrVc_61Tcot-8" value="One more thingy" style="rounded=1;whiteSpace=wrap;html=1;fillColor=#e1d5e7;strokeColor=#9673a6;" vertex="1" parent="1">
          <mxGeometry x="444" y="72" width="80" height="40" as="geometry" />
        </mxCell>
        <mxCell id="oqOKgRQTfTrVc_61Tcot-9" value="&lt;font style=&quot;font-size: 14px;&quot;&gt;Let&#39;s get started button&lt;/font&gt;" style="rounded=1;whiteSpace=wrap;html=1;fillColor=#b0e3e6;strokeColor=#0e8088;" vertex="1" parent="1">
          <mxGeometry x="160" y="270" width="150" height="50" as="geometry" />
        </mxCell>
        <mxCell id="oqOKgRQTfTrVc_61Tcot-10" value="Catchy line in heading&lt;br&gt;&lt;br&gt;Description of the company in&amp;nbsp;2-3 lines" style="text;html=1;align=center;verticalAlign=middle;whiteSpace=wrap;rounded=0;fillColor=#a20025;strokeColor=#6F0000;fontColor=#ffffff;" vertex="1" parent="1">
          <mxGeometry x="113" y="160" width="270" height="70" as="geometry" />
        </mxCell>
        <mxCell id="oqOKgRQTfTrVc_61Tcot-11" value="&lt;sup&gt;&lt;font style=&quot;font-size: 24px;&quot;&gt;Image&lt;/font&gt;&lt;/sup&gt;" style="rounded=0;whiteSpace=wrap;html=1;fillColor=#f5f5f5;fontColor=#333333;strokeColor=#666666;" vertex="1" parent="1">
          <mxGeometry x="433" y="160" width="280" height="160" as="geometry" />
        </mxCell>
        <mxCell id="oqOKgRQTfTrVc_61Tcot-19" value="" style="endArrow=none;html=1;rounded=0;entryX=0.999;entryY=0.413;entryDx=0;entryDy=0;entryPerimeter=0;" edge="1" parent="1">
          <mxGeometry width="50" height="50" relative="1" as="geometry">
            <mxPoint x="94" y="370" as="sourcePoint" />
            <mxPoint x="744" y="370" as="targetPoint" />
          </mxGeometry>
        </mxCell>
        <mxCell id="oqOKgRQTfTrVc_61Tcot-20" value="" style="rounded=0;whiteSpace=wrap;html=1;" vertex="1" parent="1">
          <mxGeometry x="94" y="711" width="650" height="39" as="geometry" />
        </mxCell>
        <mxCell id="oqOKgRQTfTrVc_61Tcot-21" value="Footer for the company like copyright, terms policy, etc." style="rounded=1;whiteSpace=wrap;html=1;fillColor=#fad9d5;strokeColor=#ae4132;" vertex="1" parent="1">
          <mxGeometry x="94" y="711" width="359" height="39" as="geometry" />
        </mxCell>
        <mxCell id="oqOKgRQTfTrVc_61Tcot-22" value="Logos of different sites where you connect with us or lookup at" style="rounded=1;whiteSpace=wrap;html=1;fillColor=#fad9d5;strokeColor=#ae4132;" vertex="1" parent="1">
          <mxGeometry x="524" y="710" width="220" height="40" as="geometry" />
        </mxCell>
        <mxCell id="oqOKgRQTfTrVc_61Tcot-28" value="One more thingy" style="rounded=1;whiteSpace=wrap;html=1;fillColor=#e1d5e7;strokeColor=#9673a6;" vertex="1" parent="1">
          <mxGeometry x="524" y="72" width="80" height="40" as="geometry" />
        </mxCell>
        <mxCell id="oqOKgRQTfTrVc_61Tcot-76" value="" style="group" vertex="1" connectable="0" parent="1">
          <mxGeometry x="280" y="420" width="120" height="240" as="geometry" />
        </mxCell>
        <mxCell id="oqOKgRQTfTrVc_61Tcot-72" value="" style="rounded=1;whiteSpace=wrap;html=1;fillColor=#6d8764;fontColor=#ffffff;strokeColor=#3A5431;" vertex="1" parent="oqOKgRQTfTrVc_61Tcot-76">
          <mxGeometry width="120" height="240" as="geometry" />
        </mxCell>
        <mxCell id="oqOKgRQTfTrVc_61Tcot-73" value="&lt;font style=&quot;font-size: 10px;&quot;&gt;Small icon here&lt;/font&gt;" style="ellipse;whiteSpace=wrap;html=1;aspect=fixed;fillColor=#ffcd28;gradientColor=#ffa500;strokeColor=#d79b00;" vertex="1" parent="oqOKgRQTfTrVc_61Tcot-76">
          <mxGeometry x="7" y="5.5" width="49" height="49" as="geometry" />
        </mxCell>
        <mxCell id="oqOKgRQTfTrVc_61Tcot-74" value="Topic 2" style="text;html=1;align=center;verticalAlign=middle;whiteSpace=wrap;rounded=0;fillColor=#1ba1e2;fontColor=#ffffff;strokeColor=#006EAF;" vertex="1" parent="oqOKgRQTfTrVc_61Tcot-76">
          <mxGeometry x="4.5" y="70" width="106.5" height="30" as="geometry" />
        </mxCell>
        <mxCell id="oqOKgRQTfTrVc_61Tcot-75" value="Description" style="text;html=1;align=center;verticalAlign=middle;whiteSpace=wrap;rounded=0;fillColor=#1ba1e2;fontColor=#ffffff;strokeColor=#006EAF;" vertex="1" parent="oqOKgRQTfTrVc_61Tcot-76">
          <mxGeometry x="5" y="105" width="106" height="115" as="geometry" />
        </mxCell>
        <mxCell id="oqOKgRQTfTrVc_61Tcot-77" value="" style="group" vertex="1" connectable="0" parent="1">
          <mxGeometry x="124" y="420" width="120" height="240" as="geometry" />
        </mxCell>
        <mxCell id="oqOKgRQTfTrVc_61Tcot-68" value="" style="rounded=1;whiteSpace=wrap;html=1;fillColor=#6d8764;fontColor=#ffffff;strokeColor=#3A5431;" vertex="1" parent="oqOKgRQTfTrVc_61Tcot-77">
          <mxGeometry width="120" height="240" as="geometry" />
        </mxCell>
        <mxCell id="oqOKgRQTfTrVc_61Tcot-69" value="&lt;font style=&quot;font-size: 10px;&quot;&gt;Small icon here&lt;/font&gt;" style="ellipse;whiteSpace=wrap;html=1;aspect=fixed;fillColor=#ffcd28;gradientColor=#ffa500;strokeColor=#d79b00;" vertex="1" parent="oqOKgRQTfTrVc_61Tcot-77">
          <mxGeometry x="7" y="5.5" width="49" height="49" as="geometry" />
        </mxCell>
        <mxCell id="oqOKgRQTfTrVc_61Tcot-70" value="Topic 1" style="text;html=1;align=center;verticalAlign=middle;whiteSpace=wrap;rounded=0;fillColor=#1ba1e2;fontColor=#ffffff;strokeColor=#006EAF;" vertex="1" parent="oqOKgRQTfTrVc_61Tcot-77">
          <mxGeometry x="4.5" y="70" width="106.5" height="30" as="geometry" />
        </mxCell>
        <mxCell id="oqOKgRQTfTrVc_61Tcot-71" value="Description" style="text;html=1;align=center;verticalAlign=middle;whiteSpace=wrap;rounded=0;fillColor=#1ba1e2;fontColor=#ffffff;strokeColor=#006EAF;" vertex="1" parent="oqOKgRQTfTrVc_61Tcot-77">
          <mxGeometry x="5" y="105" width="106" height="115" as="geometry" />
        </mxCell>
        <mxCell id="oqOKgRQTfTrVc_61Tcot-78" value="" style="group" vertex="1" connectable="0" parent="1">
          <mxGeometry x="439" y="420" width="120" height="240" as="geometry" />
        </mxCell>
        <mxCell id="oqOKgRQTfTrVc_61Tcot-46" value="" style="rounded=1;whiteSpace=wrap;html=1;fillColor=#6d8764;fontColor=#ffffff;strokeColor=#3A5431;" vertex="1" parent="oqOKgRQTfTrVc_61Tcot-78">
          <mxGeometry width="120" height="240" as="geometry" />
        </mxCell>
        <mxCell id="oqOKgRQTfTrVc_61Tcot-47" value="&lt;font style=&quot;font-size: 10px;&quot;&gt;Small icon here&lt;/font&gt;" style="ellipse;whiteSpace=wrap;html=1;aspect=fixed;fillColor=#ffcd28;gradientColor=#ffa500;strokeColor=#d79b00;" vertex="1" parent="oqOKgRQTfTrVc_61Tcot-78">
          <mxGeometry x="7" y="5.5" width="49" height="49" as="geometry" />
        </mxCell>
        <mxCell id="oqOKgRQTfTrVc_61Tcot-48" value="Topic 3" style="text;html=1;align=center;verticalAlign=middle;whiteSpace=wrap;rounded=0;fillColor=#1ba1e2;fontColor=#ffffff;strokeColor=#006EAF;" vertex="1" parent="oqOKgRQTfTrVc_61Tcot-78">
          <mxGeometry x="4.5" y="70" width="106.5" height="30" as="geometry" />
        </mxCell>
        <mxCell id="oqOKgRQTfTrVc_61Tcot-49" value="Description" style="text;html=1;align=center;verticalAlign=middle;whiteSpace=wrap;rounded=0;fillColor=#1ba1e2;fontColor=#ffffff;strokeColor=#006EAF;" vertex="1" parent="oqOKgRQTfTrVc_61Tcot-78">
          <mxGeometry x="5" y="105" width="106" height="115" as="geometry" />
        </mxCell>
        <mxCell id="oqOKgRQTfTrVc_61Tcot-79" value="" style="group" vertex="1" connectable="0" parent="1">
          <mxGeometry x="593" y="420" width="120" height="240" as="geometry" />
        </mxCell>
        <mxCell id="oqOKgRQTfTrVc_61Tcot-59" value="" style="rounded=1;whiteSpace=wrap;html=1;fillColor=#6d8764;fontColor=#ffffff;strokeColor=#3A5431;" vertex="1" parent="oqOKgRQTfTrVc_61Tcot-79">
          <mxGeometry width="120" height="240" as="geometry" />
        </mxCell>
        <mxCell id="oqOKgRQTfTrVc_61Tcot-60" value="&lt;font style=&quot;font-size: 10px;&quot;&gt;Small icon here&lt;/font&gt;" style="ellipse;whiteSpace=wrap;html=1;aspect=fixed;fillColor=#ffcd28;gradientColor=#ffa500;strokeColor=#d79b00;" vertex="1" parent="oqOKgRQTfTrVc_61Tcot-79">
          <mxGeometry x="7" y="5.5" width="49" height="49" as="geometry" />
        </mxCell>
        <mxCell id="oqOKgRQTfTrVc_61Tcot-61" value="Topic 4" style="text;html=1;align=center;verticalAlign=middle;whiteSpace=wrap;rounded=0;fillColor=#1ba1e2;fontColor=#ffffff;strokeColor=#006EAF;" vertex="1" parent="oqOKgRQTfTrVc_61Tcot-79">
          <mxGeometry x="4.5" y="70" width="106.5" height="30" as="geometry" />
        </mxCell>
        <mxCell id="oqOKgRQTfTrVc_61Tcot-62" value="Description" style="text;html=1;align=center;verticalAlign=middle;whiteSpace=wrap;rounded=0;fillColor=#1ba1e2;fontColor=#ffffff;strokeColor=#006EAF;" vertex="1" parent="oqOKgRQTfTrVc_61Tcot-79">
          <mxGeometry x="5" y="105" width="106" height="115" as="geometry" />
        </mxCell>
      </root>
    </mxGraphModel>
  </diagram>
</mxfile>
